<?xml version="1.0" encoding="UTF-8"?>
<svg xmlns="http://www.w3.org/2000/svg" width="17.09cm" height="17.09cm" viewBox="0 0 484.3 484.3">
  <defs>
    <style>
      .cls-1 {
        fill: none;
        stroke: #dadada;
        stroke-miterlimit: 10;
        stroke-width: 14px;
      }

      .cls-2 {
        fill: #dadada;
      }

      .cls-2, .cls-3 {
        stroke-width: 0px;
      }

      .cls-3 {
        fill: #191919;
      }
    </style>
  </defs>
  <g id="Layer_1" data-name="Layer 1">
    <circle class="cls-2" cx="242.15" cy="242.15" r="242.15"/>
  </g>
  <g id="Layer_3" data-name="Layer 3">
    <g>
      <path class="cls-2" d="m159.35,433.62c-1.01,0-2.02-.01-3.04-.04-27.55-.78-53.67-12.16-73.53-32.02h0c-41.29-41.3-43.01-106.77-3.82-145.96l55.98-55.98c18.98-18.98,44.69-28.99,72.43-28.2,27.55.78,53.66,12.16,73.53,32.02,16.81,16.8,27.83,38.83,31.05,62.02l1.34,9.66-9.75-.1c-3.43-.08-7.45.84-11.73,1.76-8.12,1.75-17.33,3.74-26.97.8l-4.83-1.47-.97-4.96c-2.2-11.29-7.73-21.63-15.98-29.88-7.27-7.27-16.31-12.5-26.13-15.11l-.62-.19c-1.07-.29-3.94-.93-5.33-1.15l-.23.03-1.17-.15c-12.91-1.66-25.65,1.26-35.87,8.21-2.52,1.71-4.89,3.68-7.05,5.84l-48.57,48.57c-20.37,20.37-19.24,54.64,2.51,76.4,21.76,21.75,56.03,22.88,76.4,2.51l48.57-48.57c5.48-5.48,9.49-12.03,11.93-19.48l2.47-7.54,7.67,2.03c7.39,1.95,21.19,4.31,30.59-1.83l16.64-10.86-3.8,19.51c-3.72,19.11-12.84,36.37-26.37,49.9l-55.98,55.98c-18.28,18.28-42.82,28.25-69.39,28.25Zm-64.68-43.95c34.74,34.74,89.55,36.45,122.19,3.82l55.98-55.98c7.53-7.53,13.41-16.47,17.38-26.36-6.71.92-13.45.45-19.51-.6-3.24,7.08-7.68,13.45-13.23,19.01l-48.57,48.57c-13.02,13.02-30.25,19.48-47.78,19.48-18.72,0-37.78-7.37-52.4-21.99-28.31-28.31-29.44-73.25-2.51-100.18l48.57-48.57c2.91-2.91,6.1-5.55,9.48-7.85,13.55-9.22,30.31-13.13,47.22-11.02,3.32.19,7.85,1.39,9.77,1.94v-.03c12.69,3.37,24.34,10.11,33.71,19.47,9.23,9.23,15.81,20.5,19.25,32.86,4.33.19,9.1-.82,14.06-1.89,1.78-.38,3.59-.77,5.42-1.11-3.95-16.41-12.53-31.76-24.67-43.91-34.74-34.74-89.55-36.45-122.19-3.82l-55.98,55.98c-32.63,32.63-30.92,87.45,3.82,122.19h0Zm121.37-163.82s.05.02.08.03l-.08-.03Z"/>
      <path class="cls-3" d="m88.72,395.61h0c37.92,37.92,98.25,39.64,134.07,3.82l55.98-55.98c12.78-12.78,20.77-28.67,24.06-45.56-10.24,6.68-24.28,6.37-37.34,2.92-2.75,8.41-7.4,16.23-13.97,22.81l-48.57,48.57c-23.59,23.59-63.32,22.46-88.29-2.51h0c-24.97-24.97-26.1-64.7-2.51-88.29l48.57-48.57c2.58-2.58,5.34-4.86,8.26-6.84,12.21-8.31,27.08-11.47,41.67-9.6,1.03-.16,7.73,1.39,8.44,1.67,10.88,2.89,21.28,8.66,29.92,17.29h0c9.76,9.76,15.87,21.79,18.29,34.22,12.29,3.75,25.11-3.04,36.33-2.93-2.88-20.73-12.47-41.03-28.67-57.23h0c-37.92-37.92-98.25-39.64-134.07-3.82l-55.98,55.98c-35.82,35.82-34.1,96.15,3.82,134.07Z"/>
      <path class="cls-2" d="m279.97,313c-1.01,0-2.02-.02-3.04-.04-27.55-.78-53.67-12.16-73.53-32.02-16.29-16.29-26.51-31.64-30.25-54.04l-1.25.94,8.62-4.07c12.79-5.01,19.85-8.15,38.53-3.6l2.35.47,4.07,2.35c2.29,10.3,7.5,11.85,15.77,20.12,10.55,10.55,24.39,16.59,38.96,17.01,14.39.39,27.69-4.74,37.44-14.5l48.57-48.57c20.37-20.37,19.24-54.65-2.51-76.4-21.75-21.76-56.03-22.88-76.4-2.51l-48.57,48.57c-4.67,4.67-7.93,6.31-10.44,12.73l-1.25-.47-5.95-1.25c-3.38.3-7.78-2.62-12.22-2.82-3.99-.18-6.61,1.2-9.71,1.41-7.67.51-14.95,2.4-16.92,2.82l-2.35-.16-5.48,1.88-1.53-.79c3.57-16.1,12.06-30.43,26.71-45.08l55.98-55.98c39.19-39.19,104.67-37.48,145.96,3.82,41.29,41.3,43.01,106.77,3.82,145.96l-55.98,55.98c-18.28,18.28-42.82,28.24-69.39,28.25Zm-89.19-87.09c4.01,16.23,12.39,31.03,24.5,43.14,16.82,16.82,38.88,26.44,62.12,27.1,23.05.64,44.39-7.61,60.07-23.29l55.98-55.98c32.63-32.63,30.92-87.45-3.82-122.19-34.74-34.74-89.55-36.45-122.19-3.82l-55.98,55.98c-8.45,8.45-14.32,16.39-18.12,24.69,1.01-.09,2.07-.17,3.18-.25,4.03-.27,8.64-.06,13.09.14,1.71.08,3.45.16,5.04.2,3.14-6.24,7.22-11.89,12.17-16.84l48.57-48.57c26.93-26.93,71.87-25.8,100.18,2.51,28.31,28.31,29.44,73.25,2.52,100.18l-48.57,48.57c-13.06,13.06-30.75,19.97-49.81,19.41-18.88-.54-36.77-8.33-50.37-21.93-9-9-14.87-18.46-18.2-29.44-9.02-1.72-14.78-1.24-20.36.36Z"/>
      <path class="cls-3" d="m183.01,174.42c1.48-.29,9.55-1.74,18.8-2.35,7.07-.47,15.19.16,20.68,1.57,4.7-8.15,4.67-7.26,10.29-12.88l48.57-48.57c23.59-23.59,63.32-22.46,88.29,2.51h0c24.97,24.97,26.1,64.7,2.51,88.29l-48.57,48.57c-23.59,23.59-63.32,22.46-88.29-2.51h0c-6.46-6.33-10.92-9.5-17.66-22.62-10.65-5.8-26.47-3.45-36.34,2.51,3.31,19.8,12.54,30.55,28.05,46.06h0c37.92,37.92,98.25,39.64,134.07,3.82l55.98-55.98c35.82-35.82,34.1-96.15-3.82-134.07h0c-37.92-37.92-98.25-39.64-134.07-3.82l-55.98,55.98c-12.19,12.19-18.96,17.49-22.51,33.5Z"/>
      <path class="cls-1" d="m116.44,192.88l26-6.89c9.05-2.53,36.68-16.24,65.48-15.35,30.39.94,51.38,14.72,51.38,14.72"/>
      <path class="cls-1" d="m153.4,264.62c2.82-9.71,17.56-38.17,46.37-38.85,31.32-.74,35.71,11.59,35.71,11.59"/>
      <path class="cls-1" d="m213.87,292.19c5.91,4.66,42.57,23.22,71.35,21.93,34.19-1.53,53.81-18.68,53.81-18.68"/>
      <path class="cls-1" d="m240.18,240.81c13.71,10.89,21.62,19.66,50.32,17.86,27.25-1.71,49.62-38.53,49.62-38.53"/>
    </g>
  </g>
</svg>