<?xml version="1.0" encoding="UTF-8"?>
<svg id="Layer_1" data-name="Layer 1" xmlns="http://www.w3.org/2000/svg" width="2000" height="2000" viewBox="0 0 2000 2000">
  <defs>
    <style>
      .cls-1 {
        fill: #769656;
      }

      .cls-1, .cls-2 {
        stroke-width: 0px;
      }

      .cls-2 {
        fill: #eeeed2;
      }
    </style>
  </defs>
  <rect class="cls-2" width="250" height="250"/>
  <rect class="cls-1" x="250" width="250" height="250"/>
  <rect class="cls-2" x="500" width="250" height="250"/>
  <rect class="cls-1" x="750" width="250" height="250"/>
  <rect class="cls-2" x="1000" width="250" height="250"/>
  <rect class="cls-1" x="1250" width="250" height="250"/>
  <rect class="cls-2" x="1500" width="250" height="250"/>
  <rect class="cls-1" x="1750" width="250" height="250"/>
  <rect class="cls-1" y="250" width="250" height="250"/>
  <rect class="cls-2" x="250" y="250" width="250" height="250"/>
  <rect class="cls-1" x="500" y="250" width="250" height="250"/>
  <rect class="cls-2" x="750" y="250" width="250" height="250"/>
  <rect class="cls-1" x="1000" y="250" width="250" height="250"/>
  <rect class="cls-2" x="1250" y="250" width="250" height="250"/>
  <rect class="cls-1" x="1500" y="250" width="250" height="250"/>
  <rect class="cls-2" x="1750" y="250" width="250" height="250"/>
  <rect class="cls-2" y="500" width="250" height="250"/>
  <rect class="cls-1" x="250" y="500" width="250" height="250"/>
  <rect class="cls-2" x="500" y="500" width="250" height="250"/>
  <rect class="cls-1" x="750" y="500" width="250" height="250"/>
  <rect class="cls-2" x="1000" y="500" width="250" height="250"/>
  <rect class="cls-1" x="1250" y="500" width="250" height="250"/>
  <rect class="cls-2" x="1500" y="500" width="250" height="250"/>
  <rect class="cls-1" x="1750" y="500" width="250" height="250"/>
  <rect class="cls-1" y="750" width="250" height="250"/>
  <rect class="cls-2" x="250" y="750" width="250" height="250"/>
  <rect class="cls-1" x="500" y="750" width="250" height="250"/>
  <rect class="cls-2" x="750" y="750" width="250" height="250"/>
  <rect class="cls-1" x="1000" y="750" width="250" height="250"/>
  <rect class="cls-2" x="1250" y="750" width="250" height="250"/>
  <rect class="cls-1" x="1500" y="750" width="250" height="250"/>
  <rect class="cls-2" x="1750" y="750" width="250" height="250"/>
  <rect class="cls-2" y="1000" width="250" height="250"/>
  <rect class="cls-1" x="250" y="1000" width="250" height="250"/>
  <rect class="cls-2" x="500" y="1000" width="250" height="250"/>
  <rect class="cls-1" x="750" y="1000" width="250" height="250"/>
  <rect class="cls-2" x="1000" y="1000" width="250" height="250"/>
  <rect class="cls-1" x="1250" y="1000" width="250" height="250"/>
  <rect class="cls-2" x="1500" y="1000" width="250" height="250"/>
  <rect class="cls-1" x="1750" y="1000" width="250" height="250"/>
  <rect class="cls-1" y="1250" width="250" height="250"/>
  <rect class="cls-2" x="250" y="1250" width="250" height="250"/>
  <rect class="cls-1" x="500" y="1250" width="250" height="250"/>
  <rect class="cls-2" x="750" y="1250" width="250" height="250"/>
  <rect class="cls-1" x="1000" y="1250" width="250" height="250"/>
  <rect class="cls-2" x="1250" y="1250" width="250" height="250"/>
  <rect class="cls-1" x="1500" y="1250" width="250" height="250"/>
  <rect class="cls-2" x="1750" y="1250" width="250" height="250"/>
  <rect class="cls-2" y="1500" width="250" height="250"/>
  <rect class="cls-1" x="250" y="1500" width="250" height="250"/>
  <rect class="cls-2" x="500" y="1500" width="250" height="250"/>
  <rect class="cls-1" x="750" y="1500" width="250" height="250"/>
  <rect class="cls-2" x="1000" y="1500" width="250" height="250"/>
  <rect class="cls-1" x="1250" y="1500" width="250" height="250"/>
  <rect class="cls-2" x="1500" y="1500" width="250" height="250"/>
  <rect class="cls-1" x="1750" y="1500" width="250" height="250"/>
  <rect class="cls-1" y="1750" width="250" height="250"/>
  <rect class="cls-2" x="250" y="1750" width="250" height="250"/>
  <rect class="cls-1" x="500" y="1750" width="250" height="250"/>
  <rect class="cls-2" x="750" y="1750" width="250" height="250"/>
  <rect class="cls-1" x="1000" y="1750" width="250" height="250"/>
  <rect class="cls-2" x="1250" y="1750" width="250" height="250"/>
  <rect class="cls-1" x="1500" y="1750" width="250" height="250"/>
  <rect class="cls-2" x="1750" y="1750" width="250" height="250"/>
</svg>