<?xml version="1.0" encoding="UTF-8"?>
<svg id="Layer_1" data-name="Layer 1" xmlns="http://www.w3.org/2000/svg" width="32" height="32" viewBox="0 0 32 32">
  <defs>
    <style>
      .cls-1 {
        fill: #41ab5d;
      }

      .cls-1, .cls-2 {
        stroke-width: 0px;
      }

      .cls-2 {
        fill: #78c679;
      }
    </style>
  </defs>
  <rect class="cls-2" x="2.5" y="2.5" width="27" height="27" rx="7.68" ry="7.68"/>
  <path class="cls-1" d="m21.82,5c2.85,0,5.18,2.32,5.18,5.18v11.65c0,2.85-2.32,5.18-5.18,5.18h-11.65c-2.85,0-5.18-2.32-5.18-5.18v-11.65c0-2.85,2.32-5.18,5.18-5.18h11.65m0-5h-11.65C4.56,0,0,4.56,0,10.18v11.65c0,5.62,4.56,10.18,10.18,10.18h11.65c5.62,0,10.18-4.56,10.18-10.18v-11.65c0-5.62-4.56-10.18-10.18-10.18h0Z"/>
</svg>
