<?xml version="1.0" encoding="UTF-8"?>
<svg id="Layer_1" data-name="Layer 1" xmlns="http://www.w3.org/2000/svg" width="32" height="32" viewBox="0 0 32 32">
  <defs>
    <style>
      .cls-1 {
        fill: #e7e7e7;
      }

      .cls-1, .cls-2 {
        stroke-width: 0px;
      }

      .cls-2 {
        fill: #a0a0a0;
      }

      .cls-3 {
        fill: #454545;
        font-family: DMSerifText-Regular, 'DM Serif Text';
        font-size: 26.18px;
        stroke: #454545;
        stroke-miterlimit: 10;
      }
    </style>
  </defs>
  <g>
    <rect class="cls-1" x="2.5" y="2.5" width="27" height="27" rx="11.28" ry="11.28"/>
    <path class="cls-2" d="m18.22,5c4.84,0,8.78,3.94,8.78,8.78v4.44c0,4.84-3.94,8.78-8.78,8.78h-4.44c-4.84,0-8.78-3.94-8.78-8.78v-4.44c0-4.84,3.94-8.78,8.78-8.78h4.44m0-5h-4.44C6.17,0,0,6.17,0,13.78v4.44c0,7.61,6.17,13.78,13.78,13.78h4.44c7.61,0,13.78-6.17,13.78-13.78v-4.44c0-7.61-6.17-13.78-13.78-13.78h0Z"/>
  </g>
  <text class="cls-3" transform="translate(6.69 23.43)"><tspan x="0" y="0">jo</tspan></text>
</svg>