<?xml version="1.0" encoding="UTF-8"?>
<svg xmlns="http://www.w3.org/2000/svg" width="17.09cm" height="17.09cm" viewBox="0 0 484.3 484.3">
  <defs>
    <style>
      .cls-1 {
        fill: #fff;
      }

      .cls-1, .cls-2 {
        stroke-width: 0px;
      }

      .cls-3 {
        fill: none;
        stroke: #39f;
        stroke-miterlimit: 10;
        stroke-width: 14px;
      }

      .cls-2 {
        fill: #39f;
      }
    </style>
  </defs>
  <g id="Layer_1" data-name="Layer 1">
    <circle class="cls-2" cx="242.15" cy="242.15" r="242.15"/>
  </g>
  <g id="Layer_3" data-name="Layer 3">
    <path class="cls-2" d="m173.2,401.59c-.84,0-1.69-.01-2.53-.04-22.94-.65-44.69-10.12-61.23-26.66h0c-34.39-34.39-35.81-88.91-3.18-121.55l46.62-46.62c15.8-15.8,37.21-24.14,60.32-23.48,22.94.65,44.69,10.12,61.23,26.66,13.99,13.99,23.18,32.34,25.86,51.65l1.12,8.04-8.12-.08c-2.86-.06-6.2.7-9.77,1.47-6.77,1.46-14.43,3.11-22.46.67l-4.02-1.23-.8-4.13c-1.83-9.4-6.43-18.01-13.31-24.88-6.06-6.06-13.58-10.41-21.76-12.58l-.52-.15c-.89-.24-3.28-.77-4.44-.96l-.19.03-.98-.12c-10.75-1.38-21.36,1.05-29.87,6.84-2.09,1.43-4.07,3.06-5.87,4.86l-40.45,40.45c-16.96,16.96-16.02,45.5,2.09,63.62,18.12,18.12,46.66,19.06,63.62,2.09l40.45-40.45c4.56-4.56,7.9-10.02,9.93-16.22l2.05-6.28,6.39,1.69c6.15,1.62,17.64,3.59,25.48-1.52l13.86-9.04-3.16,16.24c-3.1,15.92-10.69,30.29-21.96,41.55l-46.62,46.62c-15.22,15.22-35.66,23.52-57.78,23.52Zm-53.86-36.6c28.93,28.93,74.57,30.35,101.75,3.18l46.62-46.62c6.27-6.27,11.16-13.72,14.47-21.95-5.59.77-11.2.38-16.24-.5-2.7,5.9-6.39,11.2-11.02,15.83l-40.45,40.45c-10.84,10.84-25.19,16.22-39.78,16.22-15.59,0-31.46-6.14-43.64-18.31-23.58-23.58-24.52-61-2.09-83.42l40.45-40.45c2.42-2.42,5.08-4.62,7.89-6.54,11.28-7.68,25.24-10.93,39.32-9.18,2.76.16,6.54,1.16,8.13,1.61v-.02c10.57,2.81,20.27,8.42,28.07,16.21s13.17,17.07,16.03,27.36c3.61.16,7.58-.68,11.71-1.57,1.49-.32,2.99-.64,4.51-.93-3.29-13.67-10.43-26.45-20.55-36.57-28.93-28.93-74.57-30.35-101.75-3.18l-46.62,46.62c-27.17,27.17-25.74,72.82,3.18,101.75h0Zm101.06-136.41s.04.02.06.02l-.06-.02Z"/>
    <path class="cls-1" d="m114.39,369.94h0c31.58,31.58,81.82,33.01,111.64,3.18l46.62-46.62c10.64-10.64,17.3-23.88,20.03-37.94-8.53,5.57-20.21,5.3-31.09,2.43-2.29,7-6.16,13.52-11.63,18.99l-40.45,40.45c-19.64,19.64-52.73,18.7-73.52-2.09h0c-20.79-20.79-21.74-53.88-2.09-73.52l40.45-40.45c2.14-2.14,4.45-4.04,6.88-5.7,10.17-6.92,22.55-9.55,34.7-7.99.86-.13,6.44,1.16,7.03,1.39,9.06,2.41,17.72,7.21,24.91,14.4h0c8.13,8.13,13.21,18.14,15.23,28.49,10.23,3.12,20.91-2.53,30.25-2.44-2.4-17.26-10.38-34.17-23.87-47.66h0c-31.58-31.58-81.82-33.01-111.64-3.18l-46.62,46.62c-29.83,29.83-28.4,80.07,3.18,111.64Z"/>
    <path class="cls-2" d="m273.64,301.15c-.84,0-1.69-.01-2.53-.04-22.94-.65-44.69-10.12-61.23-26.67-13.57-13.57-22.08-26.35-25.19-45l-1.04.78,7.17-3.39c10.65-4.17,16.53-6.78,32.09-3l1.96.39,3.39,1.96c1.91,8.58,6.25,9.87,13.13,16.76,8.79,8.79,20.31,13.82,32.44,14.16,11.98.32,23.05-3.95,31.18-12.07l40.45-40.45c16.96-16.96,16.02-45.5-2.09-63.62-18.12-18.12-46.66-19.06-63.62-2.09l-40.45,40.45c-3.89,3.89-6.6,5.26-8.69,10.6l-1.04-.39-4.96-1.04c-2.81.25-6.48-2.18-10.17-2.35-3.32-.15-5.51,1-8.09,1.17-6.39.42-12.45,2-14.09,2.35l-1.96-.13-4.57,1.57-1.27-.65c2.97-13.41,10.04-25.34,22.24-37.54l46.62-46.62c32.63-32.63,87.16-31.21,121.55,3.18,34.39,34.39,35.81,88.91,3.18,121.54l-46.62,46.62c-15.22,15.22-35.66,23.52-57.78,23.52Zm-74.27-72.52c3.34,13.52,10.32,25.84,20.4,35.92,14,14,32.37,22.02,51.73,22.57,19.2.54,36.97-6.34,50.02-19.39l46.62-46.62c27.17-27.17,25.75-72.82-3.18-101.75-28.93-28.93-74.57-30.36-101.75-3.18l-46.62,46.62c-7.04,7.04-11.92,13.65-15.09,20.56.84-.07,1.72-.14,2.65-.21,3.36-.22,7.19-.05,10.9.12,1.42.06,2.87.13,4.2.17,2.62-5.2,6.01-9.9,10.13-14.02l40.45-40.45c22.42-22.42,59.84-21.48,83.42,2.09,23.58,23.58,24.52,61,2.09,83.42l-40.45,40.45c-10.88,10.88-25.6,16.63-41.48,16.16-15.72-.45-30.62-6.93-41.94-18.26-7.49-7.49-12.38-15.37-15.16-24.52-7.51-1.43-12.31-1.03-16.95.3Z"/>
    <path class="cls-1" d="m192.9,185.75c1.23-.24,7.95-1.45,15.65-1.96,5.89-.39,12.65.13,17.22,1.3,3.91-6.78,3.88-6.04,8.57-10.73l40.45-40.45c19.64-19.64,52.73-18.7,73.52,2.09h0c20.79,20.79,21.74,53.88,2.09,73.52l-40.45,40.45c-19.64,19.64-52.73,18.7-73.52-2.09h0c-5.38-5.27-9.1-7.91-14.7-18.84-8.87-4.83-22.04-2.87-30.26,2.09,2.75,16.49,10.44,25.44,23.36,38.35h0c31.58,31.58,81.82,33.01,111.64,3.18l46.62-46.62c29.83-29.83,28.4-80.07-3.18-111.64h0c-31.58-31.58-81.82-33.01-111.64-3.18l-46.62,46.62c-10.15,10.15-15.79,14.56-18.75,27.9Z"/>
    <path class="cls-3" d="m137.47,201.12l21.65-5.74c7.54-2.11,30.54-13.52,54.52-12.78,25.3.78,42.78,12.26,42.78,12.26"/>
    <path class="cls-3" d="m168.25,260.86c2.35-8.09,14.62-31.78,38.61-32.35,26.08-.61,29.74,9.65,29.74,9.65"/>
    <path class="cls-3" d="m218.6,283.82c4.92,3.88,35.45,19.33,59.41,18.26,28.47-1.27,44.8-15.55,44.8-15.55"/>
    <path class="cls-3" d="m240.51,241.03c11.41,9.07,18,16.37,41.9,14.87,22.69-1.42,41.32-32.09,41.32-32.09"/>
  </g>
</svg>